<?xml version="1.0" encoding="UTF-8" standalone="no"?>
<!DOCTYPE svg PUBLIC "-//W3C//DTD SVG 1.1//EN" "http://www.w3.org/Graphics/SVG/1.1/DTD/svg11.dtd">
<svg version="1.1" xmlns="http://www.w3.org/2000/svg" xmlns:xlink="http://www.w3.org/1999/xlink" preserveAspectRatio="xMidYMid meet" viewBox="0 0 640 640" width="640" height="640"><defs><path d="M355.01 87.15C365.05 86.77 406.97 85.52 444.73 108.4C448.11 110.45 452.33 113.45 457.36 117.38C500.43 151.01 507.43 213.48 472.87 255.81C472.08 256.78 471.6 257.37 471.43 257.59C456.8 275.81 437.64 291.13 413.93 303.54C432.42 315.38 443.98 322.78 448.6 325.74C488.49 351.27 507.45 399.55 495.58 445.4C490.18 466.29 497.79 436.86 493.38 453.94C478.49 511.46 429.04 553.4 369.87 558.7C369.85 558.7 369.82 558.71 369.76 558.71L200.98 558.71L200.98 87.15C283.13 87.94 334.47 87.94 355.01 87.15Z" id="b1BdCH4KIk"></path><linearGradient id="gradienta35x6512dc" gradientUnits="userSpaceOnUse" x1="200.98" y1="87" x2="437.58" y2="527.89"><stop style="stop-color: #d44de0;stop-opacity: 1" offset="0%"></stop><stop style="stop-color: #cf4ae1;stop-opacity: 1" offset="28.0710082248032%"></stop><stop style="stop-color: #7918f2;stop-opacity: 1" offset="76.02290470629484%"></stop><stop style="stop-color: #4801ff;stop-opacity: 1" offset="100%"></stop></linearGradient></defs><g><g><g><use xlink:href="#b1BdCH4KIk" opacity="1" fill="url(#gradienta35x6512dc)"></use><g><use xlink:href="#b1BdCH4KIk" opacity="1" fill-opacity="0" stroke="#000000" stroke-width="3" stroke-opacity="1"></use></g></g></g></g></svg>